<?xml version="1.0" standalone="yes"?>

<svg version="1.1" viewBox="0.0 0.0 912.9028871391076 270.50918635170603" fill="none" stroke="none" stroke-linecap="square" stroke-miterlimit="10" xmlns="http://www.w3.org/2000/svg" xmlns:xlink="http://www.w3.org/1999/xlink"><clipPath id="p.0"><path d="m0 0l912.9029 0l0 270.5092l-912.9029 0l0 -270.5092z" clip-rule="nonzero"></path></clipPath><g clip-path="url(#p.0)"><path fill="#000000" fill-opacity="0.0" d="m0 0l912.9029 0l0 270.5092l-912.9029 0z" fill-rule="nonzero"></path><path fill="#000000" fill-opacity="0.0" d="m0 -18.637794l960.0 0l0 164.37796l-960.0 0z" fill-rule="nonzero"></path><path fill="#000000" d="m133.7204 21.305962l0 62.6875q0 14.578125 -7.59375 22.359375q-7.59375 7.78125 -22.546875 7.78125q-13.203125 0 -21.546875 -7.46875q-8.34375 -7.484375 -8.34375 -20.125l0 -8.375l17.984375 0l0 3.40625q0 9.0625 2.90625 12.40625q2.921875 3.34375 8.6875 3.34375q5.21875 0 7.875 -2.8125q2.671875 -2.828125 2.671875 -11.265625l0 -61.9375l19.90625 0zm45.81517 23.25q14.578125 0 23.28125 10.015625q8.71875 10.015625 8.71875 25.578125l-0.125 3.34375l-47.375 0q0.375 8.5 4.4375 12.59375q4.0625 4.09375 11.625 4.09375q4.90625 0 9.046875 -2.515625q4.15625 -2.515625 5.28125 -6.046875l15.875 0q-3.65625 11.171875 -11.296875 16.65625q-7.625 5.484375 -19.46875 5.484375q-15.1875 0 -24.375 -9.609375q-9.171875 -9.609375 -9.171875 -24.9375q0 -14.6875 9.390625 -24.671875q9.40625 -9.984375 24.15625 -9.984375zm-15.5 27.53125l29.328125 0q-1.296875 -7.25 -4.6875 -10.59375q-3.375 -3.359375 -9.75 -3.359375q-6.578125 0 -10.421875 3.71875q-3.84375 3.71875 -4.46875 10.234375zm83.77527 -50.78125q1.859375 0 4.953125 0.1875q3.09375 0.171875 4.5937653 0.296875l0 13.46875q-1.7968903 -0.1875 -3.4531403 -0.28125q-1.640625 -0.09375 -3.0625 -0.09375q-3.78125 0 -5.375 1.640625q-1.578125 1.640625 -1.578125 6.734375l0 3.03125l12.468765 0l0 12.09375l-12.468765 0l0 53.578125l-18.03125 0l0 -53.578125l-10.796875 0l0 -12.09375l10.796875 0l0 -4.53125q0 -10.21875 5.921875 -15.328125q5.921875 -5.125 16.03125 -5.125zm42.177505 0q1.859375 0 4.953125 0.1875q3.09375 0.171875 4.59375 0.296875l0 13.46875q-1.796875 -0.1875 -3.453125 -0.28125q-1.640625 -0.09375 -3.0625 -0.09375q-3.78125 0 -5.375 1.640625q-1.578125 1.640625 -1.578125 6.734375l0 3.03125l12.46875 0l0 12.09375l-12.46875 0l0 53.578125l-18.03125 0l0 -53.578125l-10.796875 0l0 -12.09375l10.796875 0l0 -4.53125q0 -10.21875 5.921875 -15.328125q5.921875 -5.125 16.03125 -5.125zm54.568176 23.25q1.1875 0 2.171875 0.15625q1.0 0.15625 1.859375 0.46875l0 16.734375q-1.546875 -0.3125 -3.015625 -0.453125q-1.453125 -0.15625 -3.4375 -0.15625q-9.109375 0 -13.484375 5.578125q-4.375 5.578125 -4.375 14.9375l0 30.140625l-17.96875 0l0 -65.671875l17.109375 0l0 12.21875l0.25 0q2.84375 -6.453125 8.515625 -10.203125q5.6875 -3.75 12.375 -3.75zm41.35205 0q14.578125 0 23.28125 10.015625q8.71875 10.015625 8.71875 25.578125l-0.125 3.34375l-47.375 0q0.375 8.5 4.4375 12.59375q4.0625 4.09375 11.625 4.09375q4.90625 0 9.046875 -2.515625q4.15625 -2.515625 5.28125 -6.046875l15.875 0q-3.65625 11.171875 -11.296875 16.65625q-7.625 5.484375 -19.46875 5.484375q-15.1875 0 -24.375 -9.609375q-9.171875 -9.609375 -9.171875 -24.9375q0 -14.6875 9.390625 -24.671875q9.40625 -9.984375 24.15625 -9.984375zm-15.5 27.53125l29.328125 0q-1.296875 -7.25 -4.6875 -10.59375q-3.375 -3.359375 -9.75 -3.359375q-6.578125 0 -10.421875 3.71875q-3.84375 3.71875 -4.46875 10.234375zm69.57214 -25.796875l14.875 44.953125l0.25 0l14.328125 -44.953125l18.65625 0l-27.90625 75.15625q-2.46875 6.5781174 -7.625 10.109367q-5.140625 3.53125 -13.328125 3.53125q-3.90625 0 -6.609375 -0.1875q-2.6875 -0.171875 -5.546875 -0.484375l0 -14.828117q3.296875 0.375 5.390625 0.5q2.109375 0.125 4.03125 0.125q3.84375 0 5.953125 -2.359375q2.109375 -2.359375 2.109375 -5.890625q0 -0.9375 -0.125 -1.828125q-0.125 -0.90625 -0.671875 -2.265625l-23.140625 -61.578125l19.359375 0zm119.21045 -24.984375l21.21875 62.3125l0.25 0l20.03125 -62.0625l0.109375 -0.25l27.96875 0l0 90.65625l-18.65625 0l0 -64.25l-0.25 0l-22.203125 64.25l-15.375 0l-22.265625 -63.625l-0.25 0l0 63.625l-18.65625 0l0 -90.65625l28.078125 0zm115.093445 23.25q14.578125 0 21.671875 4.78125q7.109375 4.765625 7.109375 13.453125l0 35.21875q0 3.96875 0.515625 7.9375q0.53125 3.96875 1.78125 6.015625l-18.296875 0q-0.5 -1.484375 -0.84375 -3.0625q-0.328125 -1.59375 -0.453125 -3.203125q-3.796875 3.90625 -9.40625 5.984375q-5.609375 2.078125 -12.671875 2.078125q-10.171875 0 -16.25 -5.109375q-6.078125 -5.125 -6.078125 -14.609375q0 -9.171875 5.703125 -14.03125q5.703125 -4.875 20.78125 -6.5625q10.46875 -0.984375 13.8125 -2.5625q3.359375 -1.59375 3.359375 -5.5q0 -4.390625 -2.578125 -6.59375q-2.5625 -2.203125 -9.015625 -2.203125q-5.578125 0 -8.5625 2.390625q-2.96875 2.375 -3.46875 7.53125l-18.046875 0q0.75 -10.796875 8.890625 -16.375q8.15625 -5.578125 22.046875 -5.578125zm-14.9375 48.734375q0 3.90625 2.65625 6.140625q2.671875 2.234375 8.4375 2.234375q7.203125 0 10.890625 -3.78125q3.6875 -3.78125 3.6875 -11.03125l0 -7.015625q-1.609375 1.3125 -4.25 1.96875q-2.640625 0.640625 -9.515625 1.625q-6.140625 0.8125 -9.03125 3.203125q-2.875 2.390625 -2.875 6.65625zm76.07214 -71.984375l0 90.65625l-18.046875 0l0 -90.65625l18.046875 0zm44.434814 23.25q14.578125 0 23.28125 10.015625q8.71875 10.015625 8.71875 25.578125l-0.125 3.34375l-47.375 0q0.375 8.5 4.4375 12.59375q4.0625 4.09375 11.625 4.09375q4.90625 0 9.046875 -2.515625q4.15625 -2.515625 5.28125 -6.046875l15.875 0q-3.65625 11.171875 -11.296875 16.65625q-7.625 5.484375 -19.46875 5.484375q-15.1875 0 -24.375 -9.609375q-9.171875 -9.609375 -9.171875 -24.9375q0 -14.6875 9.390625 -24.671875q9.40625 -9.984375 24.15625 -9.984375zm-15.5 27.53125l29.328125 0q-1.296875 -7.25 -4.6875 -10.59375q-3.375 -3.359375 -9.75 -3.359375q-6.578125 0 -10.421875 3.71875q-3.84375 3.71875 -4.46875 10.234375zm77.57214 -50.78125l0 48.609375l22.75 -23.625l21.328125 0l-24.796875 24.125l27.59375 41.546875l-21.890625 0l-17.984375 -29.328125l-7.0 6.6875l0 22.640625l-18.046875 0l0 -90.65625l18.046875 0z" fill-rule="nonzero"></path><path fill="#000000" fill-opacity="0.0" d="m0.23884514 145.74016l960.0 0l0 109.5748l-960.0 0z" fill-rule="nonzero"></path><path fill="#000000" d="m201.37166 206.10265l0 6.40625l-23.125 0l0 -6.40625l23.125 0zm12.7421875 -31.671875l11.203125 47.5l0.15625 0l12.8125 -47.5l8.25 0l12.60936 47.5l0.15625 0l11.609375 -47.5l7.609375 0l-15.265625 57.109375l-7.9374847 0l-13.046875 -48.015625l-0.15625 0l-13.203125 48.015625l-7.921875 0l-14.609375 -57.109375l7.734375 0zm87.656235 14.796875q8.90625 0 13.828125 6.40625q4.921875 6.40625 4.921875 16.453125l0 0.8125l-30.984375 0l0 0.515625q0 5.890625 3.4375 9.484375q3.4375 3.59375 9.453125 3.59375q4.53125 0 7.203125 -2.109375q2.6875 -2.109375 3.5 -5.96875l6.71875 0q-1.359375 6.875 -6.015625 10.5q-4.640625 3.609375 -11.640625 3.609375q-6.515625 0 -11.03125 -2.953125q-4.515625 -2.953125 -6.671875 -8.203125q-2.140625 -5.265625 -2.140625 -10.765625q0 -9.140625 5.5 -15.25q5.515625 -6.125 13.921875 -6.125zm-12.234375 17.65625l23.75 0q-0.3125 -5.03125 -3.65625 -8.34375q-3.328125 -3.328125 -8.328125 -3.328125q-4.6875 0 -8.015625 3.171875q-3.3125 3.15625 -3.75 8.5zm45.046875 -32.453125l0 21.359375l0.15625 0q1.59375 -3.203125 5.015625 -4.875q3.421875 -1.6875 8.1875 -1.6875q8.859375 0 13.953125 6.09375q5.109375 6.09375 5.109375 15.671875q0 9.609375 -5.078125 15.578125q-5.078125 5.953125 -13.796875 5.953125q-3.859375 0 -7.5625 -1.609375q-3.6875 -1.609375 -5.828125 -4.890625l-0.15625 0l0 5.515625l-6.796875 0l0 -57.109375l6.796875 0zm-0.234375 36.40625q0 7.1875 3.46875 11.421875q3.484375 4.234375 9.578125 4.234375q5.890625 0 9.125 -4.21875q3.25 -4.21875 3.25 -11.75q0 -6.6875 -3.421875 -11.0q-3.40625 -4.3125 -9.421875 -4.3125q-5.984375 0 -9.28125 4.375q-3.296875 4.375 -3.296875 11.25zm84.02344 -36.40625q12.96875 0 19.96875 6.875q7.015625 6.875 7.015625 20.34375q0 15.078125 -6.9375 22.484375q-6.921875 7.40625 -20.046875 7.40625l-20.046875 0l0 -57.109375l20.046875 0zm0.46875 50.703125q8.546875 0 13.71875 -5.578125q5.1875 -5.59375 5.1875 -16.890625q0 -11.328125 -4.71875 -16.578125q-4.703125 -5.25 -13.921875 -5.25l-13.203125 0l0 44.296875l12.9375 0zm51.875 -35.90625q8.90625 0 13.828125 6.40625q4.921875 6.40625 4.921875 16.453125l0 0.8125l-30.984375 0l0 0.515625q0 5.890625 3.4375 9.484375q3.4375 3.59375 9.453125 3.59375q4.53125 0 7.203125 -2.109375q2.6875 -2.109375 3.5 -5.96875l6.71875 0q-1.359375 6.875 -6.015625 10.5q-4.640625 3.609375 -11.640625 3.609375q-6.515625 0 -11.03125 -2.953125q-4.515625 -2.953125 -6.671875 -8.203125q-2.140625 -5.265625 -2.140625 -10.765625q0 -9.140625 5.5 -15.25q5.515625 -6.125 13.921875 -6.125zm-12.234375 17.65625l23.75 0q-0.3125 -5.03125 -3.65625 -8.34375q-3.328125 -3.328125 -8.328125 -3.328125q-4.6875 0 -8.015625 3.171875q-3.3125 3.15625 -3.75 8.5zm41.609375 -16.71875l11.59375 34.5l0.15625 0l11.296875 -34.5l7.109375 0l-15.125 41.375l-7.265625 0l-15.34375 -41.375l7.578125 0zm53.59375 -0.9375q8.90625 0 13.828125 6.40625q4.921875 6.40625 4.921875 16.453125l0 0.8125l-30.984375 0l0 0.515625q0 5.890625 3.4375 9.484375q3.4375 3.59375 9.453125 3.59375q4.53125 0 7.203125 -2.109375q2.6875 -2.109375 3.5 -5.96875l6.71875 0q-1.359375 6.875 -6.015625 10.5q-4.640625 3.609375 -11.640625 3.609375q-6.515625 0 -11.03125 -2.953125q-4.515625 -2.953125 -6.671875 -8.203125q-2.140625 -5.265625 -2.140625 -10.765625q0 -9.140625 5.5 -15.25q5.515625 -6.125 13.921875 -6.125zm-12.234375 17.65625l23.75 0q-0.3125 -5.03125 -3.65625 -8.34375q-3.328125 -3.328125 -8.328125 -3.328125q-4.6875 0 -8.015625 3.171875q-3.3125 3.15625 -3.75 8.5zm45.203125 -32.453125l0 57.109375l-6.796875 0l0 -57.109375l6.796875 0zm28.429688 14.796875q9.375 0 14.71875 6.0625q5.359375 6.046875 5.359375 15.625q0 9.640625 -5.46875 15.625q-5.46875 5.984375 -14.609375 5.984375q-8.984375 0 -14.53125 -5.875q-5.546875 -5.890625 -5.546875 -15.734375q0 -9.84375 5.421875 -15.765625q5.4375 -5.921875 14.65625 -5.921875zm-12.890625 21.6875q0 7.109375 3.625 11.34375q3.640625 4.234375 9.265625 4.234375q5.59375 0 9.234375 -4.25q3.65625 -4.265625 3.65625 -11.328125q0 -7.078125 -3.640625 -11.390625q-3.625 -4.3125 -9.328125 -4.3125q-5.46875 0 -9.140625 4.234375q-3.671875 4.234375 -3.671875 11.46875zm61.375 -21.6875q8.859375 0 13.953125 6.09375q5.109375 6.09375 5.109375 15.671875q0 9.609375 -5.078125 15.578125q-5.078125 5.953125 -13.796875 5.953125q-3.859375 0 -7.5625 -1.609375q-3.6875 -1.609375 -5.828125 -4.890625l-0.15625 0l0 21.375l-6.796875 0l0 -57.234375l6.796875 0l0 5.625l0.15625 0q1.59375 -3.203125 5.046875 -4.875q3.46875 -1.6875 8.15625 -1.6875zm-13.59375 21.609375q0 7.1875 3.46875 11.421875q3.484375 4.234375 9.578125 4.234375q5.890625 0 9.125 -4.21875q3.25 -4.21875 3.25 -11.75q0 -6.6875 -3.421875 -11.0q-3.40625 -4.3125 -9.421875 -4.3125q-5.984375 0 -9.28125 4.375q-3.296875 4.375 -3.296875 11.25zm57.8125 -21.609375q8.90625 0 13.828125 6.40625q4.921875 6.40625 4.921875 16.453125l0 0.8125l-30.984375 0l0 0.515625q0 5.890625 3.4375 9.484375q3.4375 3.59375 9.453125 3.59375q4.53125 0 7.203125 -2.109375q2.6875 -2.109375 3.5 -5.96875l6.71875 0q-1.359375 6.875 -6.015625 10.5q-4.640625 3.609375 -11.640625 3.609375q-6.515625 0 -11.03125 -2.953125q-4.515625 -2.953125 -6.671875 -8.203125q-2.140625 -5.265625 -2.140625 -10.765625q0 -9.140625 5.5 -15.25q5.515625 -6.125 13.921875 -6.125zm-12.234375 17.65625l23.75 0q-0.3125 -5.03125 -3.65625 -8.34375q-3.328125 -3.328125 -8.328125 -3.328125q-4.6875 0 -8.015625 3.171875q-3.3125 3.15625 -3.75 8.5zm58.59375 -17.6875q0.234375 0 0.421875 0q0.203125 0 0.515625 0.03125l0 7.1875q-7.65625 0 -11.3125 4.0625q-3.640625 4.0625 -3.640625 12.546875l0 18.515625l-6.796875 0l0 -41.375l6.40625 0l0 8.71875l0.15625 0q2.375 -4.921875 5.875 -7.296875q3.5 -2.390625 8.375 -2.390625zm28.046875 16.90625l0 6.40625l-23.125 0l0 -6.40625l23.125 0z" fill-rule="nonzero"></path></g></svg>

